<svg width="20" height="16" viewBox="0 0 20 16" fill="none" xmlns="http://www.w3.org/2000/svg">
<path d="M7 2.5H20V1.5H7V2.5ZM7 8.5H20V7.5H7V8.5ZM7 14.5H20V13.5H7V14.5ZM2.5 2C2.5 2.27614 2.27614 2.5 2 2.5V3.5C2.82843 3.5 3.5 2.82843 3.5 2H2.5ZM2 2.5C1.72386 2.5 1.5 2.27614 1.5 2H0.5C0.5 2.82843 1.17157 3.5 2 3.5V2.5ZM1.5 2C1.5 1.72386 1.72386 1.5 2 1.5V0.5C1.17157 0.5 0.5 1.17157 0.5 2H1.5ZM2 1.5C2.27614 1.5 2.5 1.72386 2.5 2H3.5C3.5 1.17157 2.82843 0.5 2 0.5V1.5ZM2.5 8C2.5 8.27614 2.27614 8.5 2 8.5V9.5C2.82843 9.5 3.5 8.82843 3.5 8H2.5ZM2 8.5C1.72386 8.5 1.5 8.27614 1.5 8H0.5C0.5 8.82843 1.17157 9.5 2 9.5V8.5ZM1.5 8C1.5 7.72386 1.72386 7.5 2 7.5V6.5C1.17157 6.5 0.5 7.17157 0.5 8H1.5ZM2 7.5C2.27614 7.5 2.5 7.72386 2.5 8H3.5C3.5 7.17157 2.82843 6.5 2 6.5V7.5ZM2.5 14C2.5 14.2761 2.27614 14.5 2 14.5V15.5C2.82843 15.5 3.5 14.8284 3.5 14H2.5ZM2 14.5C1.72386 14.5 1.5 14.2761 1.5 14H0.5C0.5 14.8284 1.17157 15.5 2 15.5V14.5ZM1.5 14C1.5 13.7239 1.72386 13.5 2 13.5V12.5C1.17157 12.5 0.5 13.1716 0.5 14H1.5ZM2 13.5C2.27614 13.5 2.5 13.7239 2.5 14H3.5C3.5 13.1716 2.82843 12.5 2 12.5V13.5Z" fill="#573F7B"/>
</svg>
